<svg width="81" height="140" viewBox="0 0 81 140" fill="none" xmlns="http://www.w3.org/2000/svg">
<path fill-rule="evenodd" clip-rule="evenodd" d="M80.1916 78.8426L80.1915 40.0958C80.1915 17.9515 62.24 0 40.0958 0C17.9515 0 0 17.9515 0 40.0958V99.9042C0 122.049 17.9515 140 40.0958 140C62.24 140 80.1915 122.049 80.1915 99.9042V78.8797C80.1915 78.8673 80.1916 78.8549 80.1916 78.8426ZM72.1456 78.8709V40.0958C72.1456 22.3952 57.7964 8.04598 40.0958 8.04598C22.3952 8.04598 8.04597 22.3952 8.04597 40.0958V45.0919L27.8996 23.5232C39.8135 10.58 61.4176 19.0094 61.4176 36.6011V71.2933C61.4176 76.3319 59.4482 81.171 55.9296 84.7777L30.1331 111.221C34.3198 115.515 41.7817 116.225 46.5654 111.028L69.169 86.4714C71.0767 84.3988 72.1385 81.6871 72.1456 78.8709ZM72.1456 95.1181V99.9042C72.1456 117.605 57.7964 131.954 40.0958 131.954C22.3952 131.954 8.04597 117.605 8.04597 99.9042V61.1574H8.23924C8.23924 58.3311 9.3017 55.6081 11.2158 53.5287L33.8195 28.9723C38.6032 23.7753 46.0651 24.4853 50.2517 28.7793L24.4552 55.2223C20.9367 58.829 18.9672 63.6681 18.9672 68.7068L18.9672 103.399C18.9672 120.991 40.5713 129.42 52.4852 116.477L72.1456 95.1181ZM53.3716 37.1034V71.2933C53.3716 74.2325 52.2228 77.0553 50.1703 79.1592L27.0132 102.897L27.0132 68.7068C27.0132 65.7675 28.162 62.9447 30.2145 60.8408L53.3716 37.1034Z" fill="white"/>
</svg>
