<svg width="16" height="17" viewBox="0 0 16 17" fill="none" xmlns="http://www.w3.org/2000/svg">
<path fill-rule="evenodd" clip-rule="evenodd" d="M10.6402 1.30356C8.90364 0.89621 7.09636 0.89621 5.35978 1.30356C2.85192 1.89182 0.893774 3.84997 0.305511 6.35782C-0.101837 8.0944 -0.101837 9.90169 0.305511 11.6383C0.893774 14.1461 2.85193 16.1043 5.35978 16.6925C7.09636 17.0999 8.90364 17.0999 10.6402 16.6925C13.1481 16.1043 15.1062 14.1461 15.6945 11.6383C16.1018 9.90169 16.1018 8.09441 15.6945 6.35782C15.1062 3.84997 13.1481 1.89182 10.6402 1.30356ZM8 6.10489C7.1071 6.10489 6.38325 6.82874 6.38325 7.72164C6.38325 8.28189 6.66779 8.77589 7.10261 9.06674C7.29255 9.1938 7.37494 9.4316 7.3043 9.64893L6.72032 11.4456C6.64884 11.6655 6.81277 11.8912 7.04402 11.8912H8.95599C9.18723 11.8912 9.35117 11.6655 9.27968 11.4456L8.69571 9.64893C8.62507 9.4316 8.70745 9.1938 8.8974 9.06674C9.33222 8.77589 9.61675 8.28189 9.61675 7.72164C9.61675 6.82874 8.89291 6.10489 8 6.10489ZM5.36215 7.72164C5.36215 6.2648 6.54316 5.08379 8 5.08379C9.45685 5.08379 10.6379 6.2648 10.6379 7.72164C10.6379 8.49447 10.3052 9.18946 9.7767 9.67139L10.2508 11.1299C10.5367 12.0096 9.88099 12.9123 8.95599 12.9123H7.04402C6.11902 12.9123 5.46329 12.0096 5.74923 11.1299L6.22331 9.67139C5.6948 9.18946 5.36215 8.49447 5.36215 7.72164Z" fill="#CBCCCB"/>
</svg>
