<svg width="17" height="16" viewBox="0 0 17 16" fill="none" xmlns="http://www.w3.org/2000/svg">
<path fill-rule="evenodd" clip-rule="evenodd" d="M10.3016 1.649C9.79432 1.44501 9.24141 1.33325 8.66474 1.33325C6.42736 1.33325 4.54778 3.01556 4.30071 5.23924L4.13284 6.75005L4.12881 6.78609C4.05359 7.44157 3.84023 8.07366 3.50281 8.64064L3.48418 8.67175L3.09882 9.31401L3.08273 9.34083C2.92171 9.60914 2.77583 9.85223 2.67866 10.0586C2.57992 10.2682 2.47434 10.5523 2.52516 10.8744C2.57539 11.1928 2.73924 11.4822 2.98639 11.689C3.23644 11.8983 3.53436 11.9539 3.76495 11.9771C3.99185 12 4.27535 11.9999 4.58826 11.9999H4.58828L4.61956 11.9999H12.7099L12.7412 11.9999H12.7412C13.0541 11.9999 13.3376 12 13.5645 11.9771C13.7951 11.9539 14.093 11.8983 14.3431 11.689C14.5902 11.4822 14.7541 11.1928 14.8043 10.8744C14.8551 10.5523 14.7496 10.2682 14.6508 10.0586C14.5536 9.85222 14.4078 9.60913 14.2467 9.34081L14.2307 9.31401L13.8453 8.67175L13.8267 8.64064C13.5742 8.21637 13.3912 7.75564 13.2835 7.27593C13.083 7.31357 12.8762 7.33325 12.6647 7.33325C12.4088 7.33325 12.1595 7.3044 11.9201 7.24977C12.0431 7.9809 12.3008 8.68384 12.6809 9.32252L12.702 9.35774L13.0873 10C13.2697 10.3039 13.3795 10.4886 13.4446 10.6267L13.4544 10.648L13.4311 10.6505C13.2792 10.6658 13.0643 10.6666 12.7099 10.6666H4.61956C4.26516 10.6666 4.05024 10.6658 3.89842 10.6505L3.87511 10.648L3.88491 10.6267C3.94993 10.4886 4.05981 10.3039 4.24214 10L4.6275 9.35775L4.64859 9.32252C5.08242 8.59354 5.35674 7.78086 5.45345 6.93809L5.45802 6.8973L5.62589 5.38648C5.79794 3.83804 7.10676 2.66659 8.66474 2.66659C8.97342 2.66659 9.27232 2.71257 9.55453 2.79836C9.7225 2.36388 9.97889 1.9734 10.3016 1.649ZM11.9861 2.85195C11.5942 3.08414 11.3314 3.51134 11.3314 3.99992C11.3314 4.0966 11.3417 4.19089 11.3612 4.28173C11.4415 4.43165 11.5097 4.58928 11.5646 4.75338C11.8048 5.10356 12.208 5.33325 12.6647 5.33325C12.7927 5.33325 12.9164 5.31524 13.0335 5.28161L13.0288 5.23924C12.9273 4.32575 12.5503 3.50362 11.9861 2.85195Z" fill="white"/>
<path d="M6.73288 11.7765C6.84683 12.4144 7.09792 12.978 7.44721 13.3801C7.7965 13.7821 8.22446 14 8.66473 14C9.105 14 9.53297 13.7821 9.88226 13.3801C10.2315 12.978 10.4826 12.4144 10.5966 11.7765" stroke="white" stroke-width="1.33333" stroke-linecap="round"/>
<circle cx="12.6647" cy="4.00008" r="1.66667" fill="white" stroke="white" stroke-width="0.666667"/>
</svg>
