<svg width="16" height="16" viewBox="0 0 16 16" fill="none" xmlns="http://www.w3.org/2000/svg">
<path fill-rule="evenodd" clip-rule="evenodd" d="M1.15175 1.21186C1.08478 0.943961 0.813313 0.78108 0.545415 0.848055C0.277518 0.915029 0.114638 1.1865 0.181612 1.45439L0.882774 4.25904L1.53531 6.98171C1.81278 8.13943 2.03118 9.0507 2.29034 9.75863C2.55618 10.4848 2.88219 11.0485 3.40523 11.4809C3.45037 11.5182 3.49636 11.5544 3.54316 11.5896C4.08547 11.9975 4.70967 12.1832 5.47781 12.2724C6.22663 12.3595 7.16369 12.3594 8.35418 12.3594H8.74978C9.77982 12.3594 10.5907 12.3595 11.2439 12.2934C11.9129 12.2257 12.4635 12.0853 12.9589 11.7751C13.1939 11.628 13.4122 11.4558 13.61 11.2616C14.0272 10.8521 14.292 10.3495 14.5137 9.71463C14.7302 9.0948 14.9192 8.30629 15.1593 7.30464L15.1732 7.24647C15.3179 6.64256 15.4373 6.14472 15.4834 5.74149C15.5312 5.32296 15.5117 4.92445 15.3028 4.56059C15.2134 4.40497 15.1017 4.2633 14.9712 4.14014C14.666 3.85217 14.283 3.7403 13.8649 3.68928C13.462 3.64012 12.9501 3.64013 12.3291 3.64014L1.75883 3.64014L1.15175 1.21186ZM6.16669 9.33313C6.16669 9.05698 6.39054 8.83313 6.66669 8.83313H10.6667C10.9428 8.83313 11.1667 9.05698 11.1667 9.33313C11.1667 9.60927 10.9428 9.83313 10.6667 9.83313H6.66669C6.39054 9.83313 6.16669 9.60927 6.16669 9.33313Z" fill="white"/>
<path d="M6.28071 14.6665C6.66828 14.6665 6.98247 14.3523 6.98247 13.9647C6.98247 13.5771 6.66828 13.2629 6.28071 13.2629C5.89315 13.2629 5.57896 13.5771 5.57896 13.9647C5.57896 14.3523 5.89315 14.6665 6.28071 14.6665Z" fill="white"/>
<path d="M10.4912 14.6665C10.8788 14.6665 11.193 14.3523 11.193 13.9647C11.193 13.5771 10.8788 13.2629 10.4912 13.2629C10.1037 13.2629 9.78949 13.5771 9.78949 13.9647C9.78949 14.3523 10.1037 14.6665 10.4912 14.6665Z" fill="white"/>
</svg>
