<svg width="24" height="24" viewBox="0 0 24 24" fill="none" xmlns="http://www.w3.org/2000/svg">
<rect width="24" height="24" rx="12" fill="#E1DDFB"/>
<path fill-rule="evenodd" clip-rule="evenodd" d="M15.3769 6.70928C13.457 5.76357 11.2097 5.76357 9.28981 6.70928C8.05785 7.31612 7.22294 8.51857 7.08243 9.89189L7.06047 10.1066C6.98654 10.8292 6.98038 11.5572 7.04209 12.281L7.06271 12.5228C7.09649 12.9191 7.11598 13.1477 7.1539 13.3662C7.35981 14.5526 7.97841 15.6264 8.89879 16.3966C9.06827 16.5384 9.25571 16.6693 9.58092 16.8963L9.74817 17.0131C10.1811 17.3154 10.4429 17.4982 10.7105 17.6277C11.736 18.1241 12.9306 18.1241 13.9562 17.6277C14.2238 17.4982 14.4855 17.3154 14.9185 17.0131L15.0857 16.8964C15.4109 16.6693 15.5984 16.5384 15.7679 16.3966C16.6883 15.6264 17.3069 14.5526 17.5128 13.3662C17.5507 13.1477 17.5702 12.9191 17.604 12.5228L17.6246 12.281C17.6863 11.5572 17.6801 10.8292 17.6062 10.1066L17.5842 9.8919C17.4437 8.51857 16.6088 7.31612 15.3769 6.70928ZM14.3136 10.4403C14.4936 10.6098 14.5033 10.8946 14.3354 11.0763L12.202 13.384C12.1196 13.4732 12.0047 13.5248 11.8839 13.5269C11.763 13.529 11.6465 13.4814 11.561 13.3951L10.342 12.1644C10.1679 11.9886 10.1679 11.7037 10.342 11.528C10.516 11.3522 10.7982 11.3522 10.9723 11.528L11.8651 12.4294L13.6837 10.4622C13.8516 10.2805 14.1337 10.2707 14.3136 10.4403Z" fill="#A599F2"/>
</svg>
