<svg width="16" height="17" viewBox="0 0 16 17" fill="none" xmlns="http://www.w3.org/2000/svg">
<path fill-rule="evenodd" clip-rule="evenodd" d="M4.9437 1.61668C4.9437 1.27508 4.67385 0.998169 4.34096 0.998169C4.00808 0.998169 3.73823 1.27508 3.73823 1.61668V2.2684C2.01985 3.12023 0.735507 4.73078 0.288538 6.68613C-0.0961793 8.36915 -0.0961794 10.1207 0.288538 11.8037C0.84412 14.2342 2.69349 16.132 5.06201 16.7021C6.70212 17.0969 8.409 17.0969 10.0491 16.7021C12.4176 16.132 14.267 14.2342 14.8226 11.8037C15.2073 10.1207 15.2073 8.36915 14.8226 6.68613C14.3756 4.73078 13.0913 3.12023 11.3729 2.2684V1.61668C11.3729 1.27508 11.103 0.998169 10.7701 0.998169C10.4373 0.998169 10.1674 1.27508 10.1674 1.61668V1.81745C10.1281 1.80719 10.0887 1.79729 10.0491 1.78776C8.409 1.39298 6.70212 1.39298 5.06201 1.78776C5.02243 1.79729 4.98299 1.80719 4.9437 1.81745V1.61668ZM4.6624 9.24492C4.6624 8.97165 4.87829 8.75012 5.14459 8.75012H9.96648C10.2328 8.75012 10.4487 8.97165 10.4487 9.24492C10.4487 9.51819 10.2328 9.73973 9.96648 9.73973H5.14459C4.87829 9.73973 4.6624 9.51819 4.6624 9.24492ZM4.6624 11.7189C4.6624 11.4457 4.87829 11.2241 5.14459 11.2241H7.55553C7.82184 11.2241 8.03772 11.4457 8.03772 11.7189C8.03772 11.9922 7.82184 12.2138 7.55553 12.2138H5.14459C4.87829 12.2138 4.6624 11.9922 4.6624 11.7189Z" fill="#191919"/>
</svg>
