<svg width="18" height="16" viewBox="0 0 18 16" fill="none" xmlns="http://www.w3.org/2000/svg">
<path fill-rule="evenodd" clip-rule="evenodd" d="M6.05302 0.2936C7.92096 -0.097867 9.85683 -0.0978666 11.7248 0.293601L12.1155 0.37549C13.7275 0.713315 15.1287 1.5666 16.1161 2.7481C16.2772 2.94096 16.223 3.21903 16.0101 3.36001L10.1105 7.26675C9.37699 7.75245 8.40077 7.75245 7.6673 7.26675L1.76763 3.36002C1.55473 3.21904 1.50055 2.94096 1.66172 2.74811C2.6491 1.5666 4.05029 0.713316 5.66227 0.375491L6.05302 0.2936ZM1.17765 4.60919C0.930607 4.4456 0.586229 4.53939 0.492702 4.81059C0.440468 4.96206 0.393738 5.11599 0.352733 5.27217C-0.117578 7.06351 -0.117578 8.93649 0.352733 10.7278C0.996806 13.181 3.0535 15.0778 5.66227 15.6245L6.05302 15.7064C7.92096 16.0979 9.85682 16.0979 11.7248 15.7064L12.1155 15.6245C14.7243 15.0778 16.781 13.181 17.425 10.7278C17.8954 8.93649 17.8954 7.06352 17.425 5.27217C17.384 5.11599 17.3373 4.96205 17.2851 4.81058C17.1915 4.53938 16.8472 4.44559 16.6001 4.60918L10.9248 8.36733C9.7024 9.17682 8.07536 9.17682 6.85292 8.36733L1.17765 4.60919Z" fill="#2C2C2C"/>
</svg>
