<svg width="16" height="16" viewBox="0 0 16 16" fill="none" xmlns="http://www.w3.org/2000/svg">
<g clip-path="url(#clip0_1073_78)">
<path d="M9.06865 13.4036C8.36202 13.5321 7.638 13.5321 6.93137 13.4036C3.75614 12.8263 1.61346 9.83151 2.0922 6.63993L2.09766 6.60358C3.06478 6.55283 3.83334 5.75257 3.83334 4.7728L3.83334 3.43947C3.83334 2.42695 3.01253 1.60614 2.00001 1.60614C0.987489 1.60614 0.166678 2.42695 0.166677 3.43947L0.166677 4.7728C0.166677 5.46673 0.551913 6.06987 1.11982 6.38125L1.10327 6.49159C0.54439 10.2174 3.04573 13.7136 6.75248 14.3875C7.5774 14.5375 8.42262 14.5375 9.24754 14.3875C12.9543 13.7136 15.4556 10.2174 14.8968 6.49159L14.8802 6.38125C15.4481 6.06988 15.8333 5.46674 15.8333 4.7728L15.8333 3.43947C15.8333 2.42695 15.0125 1.60614 14 1.60614C12.9875 1.60614 12.1667 2.42695 12.1667 3.43947L12.1667 4.7728C12.1667 5.75257 12.9352 6.55283 13.9024 6.60358L13.9078 6.63993C14.3866 9.83151 12.2439 12.8263 9.06865 13.4036Z" fill="white"/>
<path d="M10.9798 7.12636C11.1751 7.32162 11.4916 7.32162 11.6869 7.12636C11.8822 6.93109 11.8822 6.61451 11.6869 6.41925L11.4202 6.15258C11.3791 6.11146 11.3623 6.09461 11.3488 6.08071C10.2803 4.98115 10.2803 3.23112 11.3488 2.13156C11.3623 2.11766 11.3791 2.10081 11.4202 2.05969L11.6869 1.79302C11.8822 1.59776 11.8822 1.28118 11.6869 1.08592C11.4916 0.890653 11.1751 0.890653 10.9798 1.08592L10.7095 1.35619C10.6731 1.39263 10.6507 1.41499 10.6316 1.43465C9.18598 2.92229 9.18598 5.28998 10.6316 6.77762C10.6508 6.79732 10.673 6.81959 10.7096 6.85616L10.9798 7.12636Z" fill="white"/>
<path d="M4.31312 6.41925C4.11786 6.61451 4.11786 6.93109 4.31312 7.12636C4.50839 7.32162 4.82497 7.32162 5.02023 7.12636L5.2904 6.85619C5.32698 6.8196 5.34926 6.79733 5.36841 6.77762C6.81404 5.28998 6.81404 2.92229 5.36841 1.43465C5.34927 1.41496 5.32702 1.3927 5.29047 1.35616L5.02023 1.08591C4.82497 0.890653 4.50839 0.890653 4.31312 1.08591C4.11786 1.28118 4.11786 1.59776 4.31312 1.79302L4.57979 2.05969C4.62091 2.10081 4.63774 2.11766 4.65125 2.13156C5.71976 3.23112 5.71976 4.98115 4.65125 6.08071C4.63774 6.09461 4.62092 6.11146 4.57979 6.15258L4.31312 6.41925Z" fill="white"/>
</g>
<defs>
<clipPath id="clip0_1073_78">
<rect width="16" height="16" fill="white" transform="translate(16 16) rotate(-180)"/>
</clipPath>
</defs>
</svg>
