<svg width="22" height="26" viewBox="0 0 22 26" fill="none" xmlns="http://www.w3.org/2000/svg">
<g id="COCO/Bold/Shield - check" clip-path="url(#clip0_125_7191)">
<path id="Vector" fill-rule="evenodd" clip-rule="evenodd" d="M16.7537 3.41514C12.9139 1.52373 8.4194 1.52373 4.57963 3.41514C2.11569 4.62883 0.445877 7.03373 0.164864 9.78037L0.120937 10.2097C-0.0269262 11.6549 -0.0392307 13.1109 0.0841863 14.5585L0.125426 15.0422C0.192982 15.8347 0.231953 16.2919 0.307792 16.7289C0.719622 19.1017 1.95683 21.2495 3.79759 22.7898C4.13654 23.0734 4.51141 23.3351 5.16184 23.7892L5.49635 24.0227C6.36223 24.6273 6.88582 24.9929 7.42096 25.252C9.47205 26.2448 11.8613 26.2448 13.9124 25.252C14.4475 24.9929 14.9711 24.6273 15.837 24.0227L16.1713 23.7893C16.8219 23.3351 17.1968 23.0734 17.5357 22.7898C19.3765 21.2495 20.6137 19.1017 21.0255 16.7289C21.1014 16.2919 21.1404 15.8348 21.2079 15.0422L21.2492 14.5585C21.3726 13.1109 21.3603 11.6549 21.2124 10.2097L21.1685 9.78037C20.8875 7.03373 19.2176 4.62883 16.7537 3.41514ZM14.6273 10.8771C14.9872 11.2163 15.0066 11.7858 14.6707 12.1492L10.4041 16.7645C10.2391 16.943 10.0094 17.0461 9.76774 17.0503C9.52602 17.0545 9.29298 16.9594 9.12204 16.7869L6.68394 14.3253C6.33582 13.9738 6.33582 13.404 6.68394 13.0525C7.03207 12.7011 7.59649 12.7011 7.94461 13.0525L9.73026 14.8553L13.3674 10.921C13.7033 10.5576 14.2674 10.538 14.6273 10.8771Z" fill="white"/>
</g>
<defs>
<clipPath id="clip0_125_7191">
<rect width="22" height="25" fill="white" transform="translate(0 0.998047)"/>
</clipPath>
</defs>
</svg>
