<svg width="31" height="53" viewBox="0 0 31 53" fill="none" xmlns="http://www.w3.org/2000/svg">
<path fill-rule="evenodd" clip-rule="evenodd" d="M30.0881 29.582L30.0881 15.0441C30.0881 6.73546 23.3527 0 15.0441 0C6.73546 0 0 6.73546 0 15.0441V37.4844C0 45.793 6.73546 52.5284 15.0441 52.5284C23.3527 52.5284 30.0881 45.793 30.0881 37.4844V29.5959C30.0881 29.5913 30.0881 29.5866 30.0881 29.582ZM27.0693 29.5926V15.0441C27.0693 8.40274 21.6854 3.01888 15.0441 3.01888C8.40274 3.01888 3.01888 8.40274 3.01888 15.0441V16.9186L10.468 8.82597C14.9382 3.96966 23.0441 7.13239 23.0441 13.7328V26.7495C23.0441 28.64 22.3052 30.4556 20.985 31.8089L11.306 41.7304C12.8769 43.3415 15.6766 43.6079 17.4715 41.658L25.9525 32.4443C26.6682 31.6667 27.0666 30.6493 27.0693 29.5926ZM27.0693 35.6886V37.4844C27.0693 44.1257 21.6854 49.5096 15.0441 49.5096C8.40274 49.5096 3.01888 44.1257 3.01888 37.4844V22.9465H3.09139C3.09139 21.886 3.49003 20.8643 4.20821 20.0841L12.6892 10.8705C14.484 8.92057 17.2838 9.18695 18.8546 10.7981L9.17567 20.7196C7.85551 22.0728 7.11657 23.8885 7.11657 25.779L7.11657 38.7956C7.11658 45.3961 15.2225 48.5588 19.6926 43.7025L27.0693 35.6886ZM20.0252 13.9213V26.7495C20.0252 27.8523 19.5942 28.9114 18.8241 29.7008L10.1355 38.6071L10.1355 25.779C10.1355 24.6762 10.5665 23.6171 11.3366 22.8277L20.0252 13.9213Z" fill="#4B33E5"/>
</svg>
