<svg width="16" height="16" viewBox="0 0 16 16" fill="none" xmlns="http://www.w3.org/2000/svg">
<path d="M14 3.3335C14 4.06988 13.4031 4.66683 12.6667 4.66683C11.9303 4.66683 11.3333 4.06988 11.3333 3.3335C11.3333 2.59712 11.9303 2.00016 12.6667 2.00016C13.4031 2.00016 14 2.59712 14 3.3335Z" fill="white"/>
<path fill-rule="evenodd" clip-rule="evenodd" d="M12.6667 5.3335C13.1397 5.3335 13.5744 5.16928 13.9168 4.89474C15.2421 7.41133 14.8464 10.5974 12.7296 12.7142C11.2152 14.2286 8.00363 15.538 5.39709 13.9272C5.25204 13.8376 5.17951 13.7927 5.12467 13.771C5.01982 13.7295 4.9403 13.7175 4.82786 13.7262C4.76906 13.7307 4.70243 13.748 4.56919 13.7825C3.73066 13.9999 3.31137 14.1085 3.00932 14.0471C2.48507 13.9404 2.07536 13.5307 1.96867 13.0064C1.90719 12.7044 2.01586 12.2851 2.2332 11.4466C2.26775 11.3133 2.28502 11.2466 2.28955 11.1876C2.29818 11.0752 2.28592 10.9948 2.24419 10.89C2.2223 10.835 2.17754 10.763 2.08803 10.619C0.471714 8.01809 1.7226 4.86504 3.30153 3.28612C5.41278 1.17487 8.58777 0.775692 11.1013 2.08859C10.8292 2.4302 10.6667 2.86286 10.6667 3.3335C10.6667 4.43807 11.5621 5.3335 12.6667 5.3335ZM6.03517 7.90535C6.03517 8.27354 5.73669 8.57202 5.3685 8.57202C5.00031 8.57202 4.70183 8.27354 4.70183 7.90535C4.70183 7.53717 5.00031 7.23869 5.3685 7.23869C5.73669 7.23869 6.03517 7.53717 6.03517 7.90535ZM8.70183 7.90535C8.70183 8.27354 8.40336 8.57202 8.03517 8.57202C7.66698 8.57202 7.3685 8.27354 7.3685 7.90535C7.3685 7.53717 7.66698 7.23869 8.03517 7.23869C8.40336 7.23869 8.70183 7.53717 8.70183 7.90535ZM10.7018 8.57202C11.07 8.57202 11.3685 8.27354 11.3685 7.90535C11.3685 7.53717 11.07 7.23869 10.7018 7.23869C10.3336 7.23869 10.0352 7.53717 10.0352 7.90535C10.0352 8.27354 10.3336 8.57202 10.7018 8.57202Z" fill="white"/>
</svg>
