<svg width="24" height="24" viewBox="0 0 24 24" fill="none" xmlns="http://www.w3.org/2000/svg">
<path fill-rule="evenodd" clip-rule="evenodd" d="M9.02975 3.3437C10.9834 2.88543 13.0166 2.88543 14.9703 3.3437C17.7916 4.00549 19.9945 6.20842 20.6563 9.02975C21.1146 10.9834 21.1146 13.0166 20.6563 14.9703C19.9945 17.7916 17.7916 19.9945 14.9703 20.6563C13.0166 21.1146 10.9834 21.1146 9.02975 20.6563C6.20842 19.9945 4.0055 17.7916 3.3437 14.9703C2.88543 13.0166 2.88543 10.9834 3.3437 9.02974C4.0055 6.20841 6.20842 4.00549 9.02975 3.3437ZM9.38253 8.06758C9.52585 8.02282 9.67455 8 9.82425 8C10.5438 8 11.0769 8.63362 11.0769 9.35018V10.9575C11.0769 11.6741 10.5438 12.3077 9.82425 12.3077C9.67454 12.3077 9.52585 12.2849 9.38253 12.2401L9.27297 12.2059C9.23556 12.1942 9.19876 12.1813 9.16259 12.1671C9.73338 13.3263 10.6737 14.2666 11.8329 14.8374C11.8187 14.8012 11.8058 14.7644 11.7941 14.727L11.7599 14.6175C11.7151 14.4741 11.6923 14.3255 11.6923 14.1758C11.6923 13.4562 12.3259 12.9231 13.0425 12.9231H14.6498C15.3664 12.9231 16 13.4562 16 14.1758C16 14.3255 15.9772 14.4742 15.9324 14.6175L15.8982 14.727C15.6989 15.3652 15.1289 15.8274 14.4471 15.9475C14.0501 16.0175 13.6422 16.0175 13.2452 15.9475C13.2296 15.9448 13.214 15.9418 13.1985 15.9387C10.5968 15.4382 8.5618 13.4032 8.06125 10.8015C8.05815 10.786 8.05522 10.7704 8.05246 10.7548C7.98251 10.3578 7.98251 9.94987 8.05246 9.55289C8.17261 8.87106 8.63478 8.30106 9.27297 8.10179L9.38253 8.06758ZM12.4946 8.70717C13.2829 8.48255 14.1414 8.67043 14.7355 9.26452C15.3296 9.85862 15.5175 10.7171 15.2928 11.5054C15.2463 11.6689 15.341 11.8391 15.5044 11.8857C15.6679 11.9322 15.8381 11.8375 15.8847 11.6741C16.1657 10.6879 15.9347 9.59348 15.1706 8.82938C14.4065 8.06528 13.3121 7.83435 12.3259 8.11534C12.1625 8.1619 12.0678 8.33214 12.1143 8.49557C12.1609 8.659 12.3311 8.75373 12.4946 8.70717ZM13.9409 10.0592C13.7356 9.85387 13.4726 9.78414 13.265 9.82549C13.0983 9.85869 12.9363 9.75049 12.9031 9.58383C12.8699 9.41717 12.9781 9.25516 13.1448 9.22196C13.571 9.13708 14.038 9.28601 14.376 9.62401C14.714 9.962 14.8629 10.429 14.778 10.8552C14.7448 11.0219 14.5828 11.1301 14.4162 11.0969C14.2495 11.0637 14.1413 10.9017 14.1745 10.735C14.2159 10.5274 14.1461 10.2644 13.9409 10.0592Z" fill="#A3DEB8"/>
</svg>
