<svg width="16" height="16" viewBox="0 0 16 16" fill="none" xmlns="http://www.w3.org/2000/svg">
<path d="M2.76504 0.135155C3.05169 0.0456496 3.34908 0 3.64848 0C5.08762 0 6.15384 1.26725 6.15383 2.70036L6.15383 5.91503C6.15384 7.34814 5.08762 8.61539 3.64848 8.61539C3.34907 8.61539 3.05168 8.56973 2.76504 8.48023L2.54593 8.41181C2.47111 8.38845 2.3975 8.36254 2.32517 8.33419C3.46674 10.6525 5.34746 12.5332 7.6658 13.6748C7.63745 13.6025 7.61154 13.5289 7.58818 13.4541L7.51976 13.2349C7.43025 12.9483 7.3846 12.6509 7.3846 12.3515C7.3846 10.9124 8.65185 9.84615 10.085 9.84615H13.2996C14.7327 9.84615 16 10.9124 16 12.3515C16 12.6509 15.9543 12.9483 15.8648 13.2349L15.7964 13.4541C15.3979 14.7304 14.2579 15.6548 12.8942 15.8951C12.1002 16.035 11.2843 16.035 10.4904 15.8951C10.4591 15.8896 10.428 15.8837 10.397 15.8775C5.19363 14.8764 1.12358 10.8063 0.122492 5.60292C0.116277 5.57194 0.110416 5.54083 0.104914 5.50961C-0.034992 4.71565 -0.0349916 3.89974 0.104915 3.10578C0.345207 1.74213 1.26955 0.602121 2.54593 0.203574L2.76504 0.135155Z" fill="#4B33E5"/>
</svg>
