<svg width="25" height="25" viewBox="0 0 25 25" fill="none" xmlns="http://www.w3.org/2000/svg">
<path fill-rule="evenodd" clip-rule="evenodd" d="M3.8437 10.028C3.38543 11.9817 3.38543 14.0149 3.8437 15.9685C4.50549 18.7899 6.70841 20.9928 9.52975 21.6546C11.4834 22.1129 13.5166 22.1129 15.4703 21.6546C18.2916 20.9928 20.4945 18.7899 21.1563 15.9685C21.6146 14.0149 21.6146 11.9817 21.1563 10.028C20.4945 7.2067 18.2916 5.00378 15.4703 4.34199C13.5166 3.88372 11.4834 3.88373 9.52975 4.34199C6.70842 5.00378 4.50549 7.2067 3.8437 10.028ZM13.2658 16.2053C13.2658 16.6018 12.9443 16.9232 12.5478 16.9232C12.1513 16.9232 11.8299 16.6018 11.8299 16.2053C11.8299 15.8087 12.1513 15.4873 12.5478 15.4873C12.9443 15.4873 13.2658 15.8087 13.2658 16.2053ZM11.1598 10.988C11.1598 10.2479 11.7598 9.64784 12.5 9.64784C13.2401 9.64784 13.8402 10.2479 13.8402 10.988V11.1042C13.8402 11.4904 13.6867 11.8609 13.4136 12.134L12.0938 13.4538C11.8695 13.6781 11.8695 14.0417 12.0938 14.266C12.3181 14.4904 12.6818 14.4904 12.9061 14.266L14.2259 12.9463C14.7145 12.4577 14.9889 11.7951 14.9889 11.1042V10.988C14.9889 9.61344 13.8746 8.4991 12.5 8.4991C11.1254 8.4991 10.011 9.61344 10.011 10.988V11.4667C10.011 11.7839 10.2682 12.0411 10.5854 12.0411C10.9026 12.0411 11.1598 11.7839 11.1598 11.4667V10.988Z" fill="#4B33E5"/>
</svg>
