<svg width="25" height="25" viewBox="0 0 25 25" fill="none" xmlns="http://www.w3.org/2000/svg">
<rect x="0.5" y="0.998291" width="24" height="24" rx="12" fill="#4B33E5"/>
<path fill-rule="evenodd" clip-rule="evenodd" d="M18.0385 6.99951C17.7836 6.99951 17.5769 7.20615 17.5769 7.46105V9.38087C17.3959 9.19633 17.1857 9.00025 16.9463 8.80415C15.9653 8.00045 14.4807 7.18725 12.5 7.18725C9.17465 7.18725 6.5 9.82509 6.5 13.0934C6.5 16.3627 9.19376 18.9995 12.5 18.9995C15.8062 18.9995 18.5 16.3627 18.5 13.0934C18.5 12.8385 18.2934 12.6318 18.0385 12.6318C17.7836 12.6318 17.5769 12.8385 17.5769 13.0934C17.5769 15.838 15.3114 18.0764 12.5 18.0764C9.68862 18.0764 7.42308 15.838 7.42308 13.0934C7.42308 10.3477 9.6715 8.11033 12.5 8.11033C14.2116 8.11033 15.4963 8.80952 16.3614 9.51821C16.6551 9.75882 16.899 9.99948 17.0927 10.212H15.1738C14.9189 10.212 14.7122 10.4187 14.7122 10.6736C14.7122 10.9285 14.9189 11.1351 15.1738 11.1351H18.0385C18.2934 11.1351 18.5 10.9285 18.5 10.6736V7.46105C18.5 7.20615 18.2934 6.99951 18.0385 6.99951Z" fill="white"/>
</svg>
