<svg width="16" height="16" viewBox="0 0 16 16" fill="none" xmlns="http://www.w3.org/2000/svg">
<path fill-rule="evenodd" clip-rule="evenodd" d="M1.33334 6.6665C1.33334 3.3528 4.01964 0.666504 7.33334 0.666504C10.6471 0.666504 13.3333 3.3528 13.3333 6.6665C13.3333 9.98021 10.6471 12.6665 7.33334 12.6665C4.01964 12.6665 1.33334 9.98021 1.33334 6.6665ZM6.63905 2.6293C6.68225 2.90205 6.49617 3.15817 6.22342 3.20136C5.01106 3.39338 4.06022 4.34422 3.8682 5.55658C3.82501 5.82933 3.56888 6.01541 3.29614 5.97221C3.0234 5.92901 2.83732 5.67289 2.88051 5.40015C3.14031 3.75989 4.42673 2.47347 6.06699 2.21368C6.33973 2.17048 6.59585 2.35656 6.63905 2.6293Z" fill="white"/>
<path d="M12.3131 11.6463C12.5084 11.451 12.825 11.451 13.0202 11.6463L15.6868 14.3129C15.8821 14.5082 15.8821 14.8248 15.6868 15.02C15.4916 15.2153 15.175 15.2153 14.9797 15.02L12.3131 12.3534C12.1179 12.1581 12.1179 11.8415 12.3131 11.6463Z" fill="white"/>
</svg>
